<?xml version="1.0" standalone="no"?>
<!DOCTYPE svg PUBLIC "-//W3C//DTD SVG 20010904//EN"
 "http://www.w3.org/TR/2001/REC-SVG-20010904/DTD/svg10.dtd">
<svg version="1.0" xmlns="http://www.w3.org/2000/svg"
 width="700.000000pt" height="700.000000pt" viewBox="0 0 700.000000 700.000000"
 preserveAspectRatio="xMidYMid meet">
<metadata>
Created by potrace 1.11, written by Peter Selinger 2001-2013
</metadata>
<g transform="translate(0.000000,700.000000) scale(0.100000,-0.100000)"
fill="#000000" stroke="none">
<path d="M515 6985 c-231 -51 -402 -203 -482 -430 l-28 -80 0 -2975 0 -2975
28 -80 c37 -105 85 -181 158 -254 73 -73 149 -121 254 -158 l80 -28 2975 0
2975 0 80 28 c105 37 181 85 254 158 73 73 121 149 158 254 l28 80 0 2975 0
2975 -28 80 c-37 105 -85 181 -158 254 -73 73 -149 121 -254 158 l-80 28
-2950 2 c-2418 1 -2961 -1 -3010 -12z m5436 -744 c48 -49 51 -29 -111 -641
-426 -1609 -698 -2878 -795 -3705 -29 -248 -39 -278 -117 -351 -50 -47 -150
-98 -328 -169 -141 -56 -480 -168 -602 -200 l-107 -28 -33 20 c-56 33 -58 65
-10 255 49 192 69 285 202 933 56 270 137 654 181 854 44 199 78 365 76 367
-2 3 -46 -89 -97 -203 -51 -115 -138 -305 -192 -423 -55 -118 -188 -408 -295
-645 -289 -638 -321 -701 -379 -756 -129 -120 -359 -209 -454 -176 -47 16 -60
56 -54 172 2 50 9 304 14 565 6 261 15 602 21 758 6 156 9 285 7 287 -2 3 -37
-104 -77 -238 -109 -358 -274 -859 -438 -1322 -80 -225 -150 -424 -154 -441
-20 -68 -139 -162 -264 -207 -115 -41 -395 -122 -629 -182 l-219 -57 -26 20
c-14 10 -32 32 -40 47 -12 26 -10 41 28 176 151 536 531 1677 791 2374 338
909 615 1566 793 1878 31 53 59 107 62 120 12 40 65 115 100 141 87 67 288
150 620 259 264 86 404 122 439 113 14 -3 35 -21 48 -38 37 -53 35 -134 -11
-453 -22 -154 -45 -332 -51 -395 -18 -188 -12 -607 9 -647 4 -7 41 54 86 139
44 84 133 254 198 378 184 350 370 723 430 862 74 171 146 266 239 314 62 32
323 135 423 168 187 60 415 99 618 104 64 2 71 0 98 -27z"/>
</g>
</svg>
